<?xml version="1.0" encoding="UTF-8"?>
<svg id="Map" xmlns="http://www.w3.org/2000/svg" viewBox="0 0 1169.8 712.9">
  <defs>
    <style>
      .cls-1 {
        stroke-dasharray: 16.9;
        stroke-width: 2.8px;
      }

      .cls-1, .cls-2, .cls-3 {
        stroke: #fff;
      }

      .cls-1, .cls-2, .cls-3, .cls-4 {
        fill: none;
        stroke-miterlimit: 10;
      }

      .cls-5 {
        fill: #ff8e7b;
      }

      .cls-6 {
        fill: #6a0872;
      }

      .cls-7 {
        fill: #5e5e5e;
      }

      .cls-8 {
        fill: #262626;
      }

      .cls-9 {
        fill: #47c947;
      }

      .cls-10 {
        fill: #fce8d0;
      }

      .cls-3 {
        stroke-dasharray: 11.9;
        stroke-width: 3px;
      }

      .cls-11 {
        fill: #212121;
      }

      .cls-12 {
        fill: #50a0ff;
      }

      .cls-13 {
        fill: #e4ffa9;
      }

      .cls-14 {
        fill: #e8d4ff;
      }

      .cls-15 {
        fill: #ddd;
      }

      .cls-16 {
        fill: #6992ed;
      }

      .cls-17 {
        fill: #ffb600;
      }

      .cls-4 {
        stroke: #5e5e5e;
      }
    </style>
  </defs>
  <g id="Map-2" data-name="Map">
    <rect class="cls-10" y="0" width="1169.8" height="712.9"/>
    <g>
      <rect class="cls-7" x="100.5" y="0" width="304.7" height="712.9"/>
      <rect class="cls-7" x="511.2" y="0" width="94.9" height="712.9"/>
      <polygon class="cls-7" points="948.1 115.3 809 115.3 809 0 712.8 0 712.8 115.3 712.8 474.8 712.8 712.9 809 712.9 809 453 948.1 453 948.1 115.3"/>
    </g>
    <g>
      <g>
        <line class="cls-4" x1="415.3" y1="0" x2="415.3" y2="712.9"/>
        <line class="cls-4" x1="453.5" y1="0" x2="453.5" y2="712.9"/>
      </g>
      <line class="cls-4" x1="412.7" y1="2.6" x2="456.5" y2="2.6"/>
      <line class="cls-4" x1="412.7" y1="9.7" x2="456.5" y2="9.7"/>
      <line class="cls-4" x1="412.7" y1="16.7" x2="456.5" y2="16.7"/>
      <line class="cls-4" x1="412.7" y1="23.7" x2="456.5" y2="23.7"/>
      <line class="cls-4" x1="412.7" y1="30.8" x2="456.5" y2="30.8"/>
      <line class="cls-4" x1="412.7" y1="37.8" x2="456.5" y2="37.8"/>
      <line class="cls-4" x1="412.7" y1="44.8" x2="456.5" y2="44.8"/>
      <line class="cls-4" x1="412.7" y1="51.9" x2="456.5" y2="51.9"/>
      <line class="cls-4" x1="412.7" y1="58.9" x2="456.5" y2="58.9"/>
      <line class="cls-4" x1="412.7" y1="66" x2="456.5" y2="66"/>
      <line class="cls-4" x1="412.7" y1="73" x2="456.5" y2="73"/>
      <line class="cls-4" x1="412.7" y1="80" x2="456.5" y2="80"/>
      <line class="cls-4" x1="412.7" y1="87.1" x2="456.5" y2="87.1"/>
      <line class="cls-4" x1="412.7" y1="94.1" x2="456.5" y2="94.1"/>
      <line class="cls-4" x1="412.7" y1="101.1" x2="456.5" y2="101.1"/>
      <line class="cls-4" x1="412.7" y1="108.2" x2="456.5" y2="108.2"/>
      <line class="cls-4" x1="412.7" y1="115.2" x2="456.5" y2="115.2"/>
      <line class="cls-4" x1="412.7" y1="122.3" x2="456.5" y2="122.3"/>
      <line class="cls-4" x1="412.7" y1="129.3" x2="456.5" y2="129.3"/>
      <line class="cls-4" x1="412.7" y1="136.3" x2="456.5" y2="136.3"/>
      <line class="cls-4" x1="412.7" y1="143.4" x2="456.5" y2="143.4"/>
      <line class="cls-4" x1="412.7" y1="150.4" x2="456.5" y2="150.4"/>
      <line class="cls-4" x1="412.7" y1="157.4" x2="456.5" y2="157.4"/>
      <line class="cls-4" x1="412.7" y1="164.5" x2="456.5" y2="164.5"/>
      <line class="cls-4" x1="412.7" y1="171.5" x2="456.5" y2="171.5"/>
      <line class="cls-4" x1="412.7" y1="178.6" x2="456.5" y2="178.6"/>
      <line class="cls-4" x1="412.7" y1="185.6" x2="456.5" y2="185.6"/>
      <line class="cls-4" x1="412.7" y1="192.6" x2="456.5" y2="192.6"/>
      <line class="cls-4" x1="412.7" y1="199.7" x2="456.5" y2="199.7"/>
      <line class="cls-4" x1="412.7" y1="206.7" x2="456.5" y2="206.7"/>
      <line class="cls-4" x1="412.7" y1="213.7" x2="456.5" y2="213.7"/>
      <line class="cls-4" x1="412.7" y1="220.8" x2="456.5" y2="220.8"/>
      <line class="cls-4" x1="412.7" y1="227.8" x2="456.5" y2="227.8"/>
      <line class="cls-4" x1="412.7" y1="234.8" x2="456.5" y2="234.8"/>
      <line class="cls-4" x1="412.7" y1="241.9" x2="456.5" y2="241.9"/>
      <line class="cls-4" x1="412.7" y1="248.9" x2="456.5" y2="248.9"/>
      <line class="cls-4" x1="412.7" y1="255.9" x2="456.5" y2="255.9"/>
      <line class="cls-4" x1="412.7" y1="263" x2="456.5" y2="263"/>
      <line class="cls-4" x1="412.7" y1="270" x2="456.5" y2="270"/>
      <line class="cls-4" x1="412.7" y1="277.1" x2="456.5" y2="277.1"/>
      <line class="cls-4" x1="412.7" y1="284.1" x2="456.5" y2="284.1"/>
      <line class="cls-4" x1="412.7" y1="291.1" x2="456.5" y2="291.1"/>
      <line class="cls-4" x1="412.7" y1="298.2" x2="456.5" y2="298.2"/>
      <line class="cls-4" x1="412.7" y1="305.2" x2="456.5" y2="305.2"/>
      <line class="cls-4" x1="412.7" y1="312.2" x2="456.5" y2="312.2"/>
      <line class="cls-4" x1="412.7" y1="319.3" x2="456.5" y2="319.3"/>
      <line class="cls-4" x1="412.7" y1="326.3" x2="456.5" y2="326.3"/>
      <line class="cls-4" x1="412.7" y1="333.4" x2="456.5" y2="333.4"/>
      <line class="cls-4" x1="412.7" y1="340.4" x2="456.5" y2="340.4"/>
      <line class="cls-4" x1="412.7" y1="347.4" x2="456.5" y2="347.4"/>
      <line class="cls-4" x1="412.7" y1="354.5" x2="456.5" y2="354.5"/>
      <line class="cls-4" x1="412.7" y1="361.5" x2="456.5" y2="361.5"/>
      <line class="cls-4" x1="412.7" y1="368.5" x2="456.5" y2="368.5"/>
      <line class="cls-4" x1="412.7" y1="375.6" x2="456.5" y2="375.6"/>
      <line class="cls-4" x1="412.7" y1="382.6" x2="456.5" y2="382.6"/>
      <line class="cls-4" x1="412.7" y1="389.6" x2="456.5" y2="389.6"/>
      <line class="cls-4" x1="412.7" y1="396.7" x2="456.5" y2="396.7"/>
      <line class="cls-4" x1="412.7" y1="403.7" x2="456.5" y2="403.7"/>
      <line class="cls-4" x1="412.7" y1="410.8" x2="456.5" y2="410.8"/>
      <line class="cls-4" x1="412.7" y1="417.8" x2="456.5" y2="417.8"/>
      <line class="cls-4" x1="412.7" y1="424.8" x2="456.5" y2="424.8"/>
      <line class="cls-4" x1="412.7" y1="431.9" x2="456.5" y2="431.9"/>
      <line class="cls-4" x1="412.7" y1="438.9" x2="456.5" y2="438.9"/>
      <line class="cls-4" x1="412.7" y1="445.9" x2="456.5" y2="445.9"/>
      <line class="cls-4" x1="412.7" y1="453" x2="456.5" y2="453"/>
      <line class="cls-4" x1="412.7" y1="460" x2="456.5" y2="460"/>
      <line class="cls-4" x1="412.7" y1="467" x2="456.5" y2="467"/>
      <line class="cls-4" x1="412.7" y1="474.1" x2="456.5" y2="474.1"/>
      <line class="cls-4" x1="412.7" y1="481.1" x2="456.5" y2="481.1"/>
      <line class="cls-4" x1="412.7" y1="488.2" x2="456.5" y2="488.2"/>
      <line class="cls-4" x1="412.7" y1="495.2" x2="456.5" y2="495.2"/>
      <line class="cls-4" x1="412.7" y1="502.2" x2="456.5" y2="502.2"/>
      <line class="cls-4" x1="412.7" y1="509.3" x2="456.5" y2="509.3"/>
      <line class="cls-4" x1="412.7" y1="516.3" x2="456.5" y2="516.3"/>
      <line class="cls-4" x1="412.7" y1="523.3" x2="456.5" y2="523.3"/>
      <line class="cls-4" x1="412.7" y1="530.4" x2="456.5" y2="530.4"/>
      <line class="cls-4" x1="412.7" y1="537.4" x2="456.5" y2="537.4"/>
      <line class="cls-4" x1="412.7" y1="544.5" x2="456.5" y2="544.5"/>
      <line class="cls-4" x1="412.7" y1="551.5" x2="456.5" y2="551.5"/>
      <line class="cls-4" x1="412.7" y1="558.5" x2="456.5" y2="558.5"/>
      <line class="cls-4" x1="412.7" y1="565.6" x2="456.5" y2="565.6"/>
      <line class="cls-4" x1="412.7" y1="572.6" x2="456.5" y2="572.6"/>
      <line class="cls-4" x1="412.7" y1="579.6" x2="456.5" y2="579.6"/>
      <line class="cls-4" x1="412.7" y1="586.7" x2="456.5" y2="586.7"/>
      <line class="cls-4" x1="412.7" y1="593.7" x2="456.5" y2="593.7"/>
      <line class="cls-4" x1="412.7" y1="600.7" x2="456.5" y2="600.7"/>
      <line class="cls-4" x1="412.7" y1="607.8" x2="456.5" y2="607.8"/>
      <line class="cls-4" x1="412.7" y1="614.8" x2="456.5" y2="614.8"/>
      <line class="cls-4" x1="412.7" y1="621.8" x2="456.5" y2="621.8"/>
      <line class="cls-4" x1="412.7" y1="628.9" x2="456.5" y2="628.9"/>
      <line class="cls-4" x1="412.7" y1="635.9" x2="456.5" y2="635.9"/>
      <line class="cls-4" x1="412.7" y1="643" x2="456.5" y2="643"/>
      <line class="cls-4" x1="412.7" y1="650" x2="456.5" y2="650"/>
      <line class="cls-4" x1="412.7" y1="657" x2="456.5" y2="657"/>
      <line class="cls-4" x1="412.7" y1="664.1" x2="456.5" y2="664.1"/>
      <line class="cls-4" x1="412.7" y1="671.1" x2="456.5" y2="671.1"/>
      <line class="cls-4" x1="412.7" y1="678.2" x2="456.5" y2="678.2"/>
      <line class="cls-4" x1="412.7" y1="685.2" x2="456.5" y2="685.2"/>
      <line class="cls-4" x1="412.7" y1="692.2" x2="456.5" y2="692.2"/>
      <line class="cls-4" x1="412.7" y1="699.3" x2="456.5" y2="699.3"/>
      <line class="cls-4" x1="412.7" y1="706.3" x2="456.5" y2="706.3"/>
    </g>
    <g>
      <g>
        <line class="cls-4" x1="463" y1="0" x2="463" y2="712.9"/>
        <line class="cls-4" x1="501.2" y1="0" x2="501.2" y2="712.9"/>
      </g>
      <line class="cls-4" x1="460.4" y1="2.6" x2="504.2" y2="2.6"/>
      <line class="cls-4" x1="460.4" y1="9.7" x2="504.2" y2="9.7"/>
      <line class="cls-4" x1="460.4" y1="16.7" x2="504.2" y2="16.7"/>
      <line class="cls-4" x1="460.4" y1="23.7" x2="504.2" y2="23.7"/>
      <line class="cls-4" x1="460.4" y1="30.8" x2="504.2" y2="30.8"/>
      <line class="cls-4" x1="460.4" y1="37.8" x2="504.2" y2="37.8"/>
      <line class="cls-4" x1="460.4" y1="44.8" x2="504.2" y2="44.8"/>
      <line class="cls-4" x1="460.4" y1="51.9" x2="504.2" y2="51.9"/>
      <line class="cls-4" x1="460.4" y1="58.9" x2="504.2" y2="58.9"/>
      <line class="cls-4" x1="460.4" y1="66" x2="504.2" y2="66"/>
      <line class="cls-4" x1="460.4" y1="73" x2="504.2" y2="73"/>
      <line class="cls-4" x1="460.4" y1="80" x2="504.2" y2="80"/>
      <line class="cls-4" x1="460.4" y1="87.1" x2="504.2" y2="87.1"/>
      <line class="cls-4" x1="460.4" y1="94.1" x2="504.2" y2="94.1"/>
      <line class="cls-4" x1="460.4" y1="101.1" x2="504.2" y2="101.1"/>
      <line class="cls-4" x1="460.4" y1="108.2" x2="504.2" y2="108.2"/>
      <line class="cls-4" x1="460.4" y1="115.2" x2="504.2" y2="115.2"/>
      <line class="cls-4" x1="460.4" y1="122.3" x2="504.2" y2="122.3"/>
      <line class="cls-4" x1="460.4" y1="129.3" x2="504.2" y2="129.3"/>
      <line class="cls-4" x1="460.4" y1="136.3" x2="504.2" y2="136.3"/>
      <line class="cls-4" x1="460.4" y1="143.4" x2="504.2" y2="143.4"/>
      <line class="cls-4" x1="460.4" y1="150.4" x2="504.2" y2="150.4"/>
      <line class="cls-4" x1="460.4" y1="157.4" x2="504.2" y2="157.4"/>
      <line class="cls-4" x1="460.4" y1="164.5" x2="504.2" y2="164.5"/>
      <line class="cls-4" x1="460.4" y1="171.5" x2="504.2" y2="171.5"/>
      <line class="cls-4" x1="460.4" y1="178.6" x2="504.2" y2="178.6"/>
      <line class="cls-4" x1="460.4" y1="185.6" x2="504.2" y2="185.6"/>
      <line class="cls-4" x1="460.4" y1="192.6" x2="504.2" y2="192.6"/>
      <line class="cls-4" x1="460.4" y1="199.7" x2="504.2" y2="199.7"/>
      <line class="cls-4" x1="460.4" y1="206.7" x2="504.2" y2="206.7"/>
      <line class="cls-4" x1="460.4" y1="213.7" x2="504.2" y2="213.7"/>
      <line class="cls-4" x1="460.4" y1="220.8" x2="504.2" y2="220.8"/>
      <line class="cls-4" x1="460.4" y1="227.8" x2="504.2" y2="227.8"/>
      <line class="cls-4" x1="460.4" y1="234.8" x2="504.2" y2="234.8"/>
      <line class="cls-4" x1="460.4" y1="241.9" x2="504.2" y2="241.9"/>
      <line class="cls-4" x1="460.4" y1="248.9" x2="504.2" y2="248.9"/>
      <line class="cls-4" x1="460.4" y1="255.9" x2="504.2" y2="255.9"/>
      <line class="cls-4" x1="460.4" y1="263" x2="504.2" y2="263"/>
      <line class="cls-4" x1="460.4" y1="270" x2="504.2" y2="270"/>
      <line class="cls-4" x1="460.4" y1="277.1" x2="504.2" y2="277.1"/>
      <line class="cls-4" x1="460.4" y1="284.1" x2="504.2" y2="284.1"/>
      <line class="cls-4" x1="460.4" y1="291.1" x2="504.2" y2="291.1"/>
      <line class="cls-4" x1="460.4" y1="298.2" x2="504.2" y2="298.2"/>
      <line class="cls-4" x1="460.4" y1="305.2" x2="504.2" y2="305.2"/>
      <line class="cls-4" x1="460.4" y1="312.2" x2="504.2" y2="312.2"/>
      <line class="cls-4" x1="460.4" y1="319.3" x2="504.2" y2="319.3"/>
      <line class="cls-4" x1="460.4" y1="326.3" x2="504.2" y2="326.3"/>
      <line class="cls-4" x1="460.4" y1="333.4" x2="504.2" y2="333.4"/>
      <line class="cls-4" x1="460.4" y1="340.4" x2="504.2" y2="340.4"/>
      <line class="cls-4" x1="460.4" y1="347.4" x2="504.2" y2="347.4"/>
      <line class="cls-4" x1="460.4" y1="354.5" x2="504.2" y2="354.5"/>
      <line class="cls-4" x1="460.4" y1="361.5" x2="504.2" y2="361.5"/>
      <line class="cls-4" x1="460.4" y1="368.5" x2="504.2" y2="368.5"/>
      <line class="cls-4" x1="460.4" y1="375.6" x2="504.2" y2="375.6"/>
      <line class="cls-4" x1="460.4" y1="382.6" x2="504.2" y2="382.6"/>
      <line class="cls-4" x1="460.4" y1="389.6" x2="504.2" y2="389.6"/>
      <line class="cls-4" x1="460.4" y1="396.7" x2="504.2" y2="396.7"/>
      <line class="cls-4" x1="460.4" y1="403.7" x2="504.2" y2="403.7"/>
      <line class="cls-4" x1="460.4" y1="410.8" x2="504.2" y2="410.8"/>
      <line class="cls-4" x1="460.4" y1="417.8" x2="504.2" y2="417.8"/>
      <line class="cls-4" x1="460.4" y1="424.8" x2="504.2" y2="424.8"/>
      <line class="cls-4" x1="460.4" y1="431.9" x2="504.2" y2="431.9"/>
      <line class="cls-4" x1="460.4" y1="438.9" x2="504.2" y2="438.9"/>
      <line class="cls-4" x1="460.4" y1="445.9" x2="504.2" y2="445.9"/>
      <line class="cls-4" x1="460.4" y1="453" x2="504.2" y2="453"/>
      <line class="cls-4" x1="460.4" y1="460" x2="504.2" y2="460"/>
      <line class="cls-4" x1="460.4" y1="467" x2="504.2" y2="467"/>
      <line class="cls-4" x1="460.4" y1="474.1" x2="504.2" y2="474.1"/>
      <line class="cls-4" x1="460.4" y1="481.1" x2="504.2" y2="481.1"/>
      <line class="cls-4" x1="460.4" y1="488.2" x2="504.2" y2="488.2"/>
      <line class="cls-4" x1="460.4" y1="495.2" x2="504.2" y2="495.2"/>
      <line class="cls-4" x1="460.4" y1="502.2" x2="504.2" y2="502.2"/>
      <line class="cls-4" x1="460.4" y1="509.3" x2="504.2" y2="509.3"/>
      <line class="cls-4" x1="460.4" y1="516.3" x2="504.2" y2="516.3"/>
      <line class="cls-4" x1="460.4" y1="523.3" x2="504.2" y2="523.3"/>
      <line class="cls-4" x1="460.4" y1="530.4" x2="504.2" y2="530.4"/>
      <line class="cls-4" x1="460.4" y1="537.4" x2="504.2" y2="537.4"/>
      <line class="cls-4" x1="460.4" y1="544.5" x2="504.2" y2="544.5"/>
      <line class="cls-4" x1="460.4" y1="551.5" x2="504.2" y2="551.5"/>
      <line class="cls-4" x1="460.4" y1="558.5" x2="504.2" y2="558.5"/>
      <line class="cls-4" x1="460.4" y1="565.6" x2="504.2" y2="565.6"/>
      <line class="cls-4" x1="460.4" y1="572.6" x2="504.2" y2="572.6"/>
      <line class="cls-4" x1="460.4" y1="579.6" x2="504.2" y2="579.6"/>
      <line class="cls-4" x1="460.4" y1="586.7" x2="504.2" y2="586.7"/>
      <line class="cls-4" x1="460.4" y1="593.7" x2="504.2" y2="593.7"/>
      <line class="cls-4" x1="460.4" y1="600.7" x2="504.2" y2="600.7"/>
      <line class="cls-4" x1="460.4" y1="607.8" x2="504.2" y2="607.8"/>
      <line class="cls-4" x1="460.4" y1="614.8" x2="504.2" y2="614.8"/>
      <line class="cls-4" x1="460.4" y1="621.8" x2="504.2" y2="621.8"/>
      <line class="cls-4" x1="460.4" y1="628.9" x2="504.2" y2="628.9"/>
      <line class="cls-4" x1="460.4" y1="635.9" x2="504.2" y2="635.9"/>
      <line class="cls-4" x1="460.4" y1="643" x2="504.2" y2="643"/>
      <line class="cls-4" x1="460.4" y1="650" x2="504.2" y2="650"/>
      <line class="cls-4" x1="460.4" y1="657" x2="504.2" y2="657"/>
      <line class="cls-4" x1="460.4" y1="664.1" x2="504.2" y2="664.1"/>
      <line class="cls-4" x1="460.4" y1="671.1" x2="504.2" y2="671.1"/>
      <line class="cls-4" x1="460.4" y1="678.2" x2="504.2" y2="678.2"/>
      <line class="cls-4" x1="460.4" y1="685.2" x2="504.2" y2="685.2"/>
      <line class="cls-4" x1="460.4" y1="692.2" x2="504.2" y2="692.2"/>
      <line class="cls-4" x1="460.4" y1="699.3" x2="504.2" y2="699.3"/>
      <line class="cls-4" x1="460.4" y1="706.3" x2="504.2" y2="706.3"/>
    </g>
    <g>
      <g>
        <line class="cls-4" x1="616.1" y1="0" x2="616.1" y2="712.9"/>
        <line class="cls-4" x1="654.3" y1="0" x2="654.3" y2="712.9"/>
      </g>
      <line class="cls-4" x1="613.5" y1="2.6" x2="657.3" y2="2.6"/>
      <line class="cls-4" x1="613.5" y1="9.7" x2="657.3" y2="9.7"/>
      <line class="cls-4" x1="613.5" y1="16.7" x2="657.3" y2="16.7"/>
      <line class="cls-4" x1="613.5" y1="23.7" x2="657.3" y2="23.7"/>
      <line class="cls-4" x1="613.5" y1="30.8" x2="657.3" y2="30.8"/>
      <line class="cls-4" x1="613.5" y1="37.8" x2="657.3" y2="37.8"/>
      <line class="cls-4" x1="613.5" y1="44.8" x2="657.3" y2="44.8"/>
      <line class="cls-4" x1="613.5" y1="51.9" x2="657.3" y2="51.9"/>
      <line class="cls-4" x1="613.5" y1="58.9" x2="657.3" y2="58.9"/>
      <line class="cls-4" x1="613.5" y1="66" x2="657.3" y2="66"/>
      <line class="cls-4" x1="613.5" y1="73" x2="657.3" y2="73"/>
      <line class="cls-4" x1="613.5" y1="80" x2="657.3" y2="80"/>
      <line class="cls-4" x1="613.5" y1="87.1" x2="657.3" y2="87.1"/>
      <line class="cls-4" x1="613.5" y1="94.1" x2="657.3" y2="94.1"/>
      <line class="cls-4" x1="613.5" y1="101.1" x2="657.3" y2="101.1"/>
      <line class="cls-4" x1="613.5" y1="108.2" x2="657.3" y2="108.2"/>
      <line class="cls-4" x1="613.5" y1="115.2" x2="657.3" y2="115.2"/>
      <line class="cls-4" x1="613.5" y1="122.3" x2="657.3" y2="122.3"/>
      <line class="cls-4" x1="613.5" y1="129.3" x2="657.3" y2="129.3"/>
      <line class="cls-4" x1="613.5" y1="136.3" x2="657.3" y2="136.3"/>
      <line class="cls-4" x1="613.5" y1="143.4" x2="657.3" y2="143.4"/>
      <line class="cls-4" x1="613.5" y1="150.4" x2="657.3" y2="150.4"/>
      <line class="cls-4" x1="613.5" y1="157.4" x2="657.3" y2="157.4"/>
      <line class="cls-4" x1="613.5" y1="164.5" x2="657.3" y2="164.5"/>
      <line class="cls-4" x1="613.5" y1="171.5" x2="657.3" y2="171.5"/>
      <line class="cls-4" x1="613.5" y1="178.6" x2="657.3" y2="178.6"/>
      <line class="cls-4" x1="613.5" y1="185.6" x2="657.3" y2="185.6"/>
      <line class="cls-4" x1="613.5" y1="192.6" x2="657.3" y2="192.6"/>
      <line class="cls-4" x1="613.5" y1="199.7" x2="657.3" y2="199.7"/>
      <line class="cls-4" x1="613.5" y1="206.7" x2="657.3" y2="206.7"/>
      <line class="cls-4" x1="613.5" y1="213.7" x2="657.3" y2="213.7"/>
      <line class="cls-4" x1="613.5" y1="220.8" x2="657.3" y2="220.8"/>
      <line class="cls-4" x1="613.5" y1="227.8" x2="657.3" y2="227.8"/>
      <line class="cls-4" x1="613.5" y1="234.8" x2="657.3" y2="234.8"/>
      <line class="cls-4" x1="613.5" y1="241.9" x2="657.3" y2="241.9"/>
      <line class="cls-4" x1="613.5" y1="248.9" x2="657.3" y2="248.9"/>
      <line class="cls-4" x1="613.5" y1="255.9" x2="657.3" y2="255.9"/>
      <line class="cls-4" x1="613.5" y1="263" x2="657.3" y2="263"/>
      <line class="cls-4" x1="613.5" y1="270" x2="657.3" y2="270"/>
      <line class="cls-4" x1="613.5" y1="277.1" x2="657.3" y2="277.1"/>
      <line class="cls-4" x1="613.5" y1="284.1" x2="657.3" y2="284.1"/>
      <line class="cls-4" x1="613.5" y1="291.1" x2="657.3" y2="291.1"/>
      <line class="cls-4" x1="613.5" y1="298.2" x2="657.3" y2="298.2"/>
      <line class="cls-4" x1="613.5" y1="305.2" x2="657.3" y2="305.2"/>
      <line class="cls-4" x1="613.5" y1="312.2" x2="657.3" y2="312.2"/>
      <line class="cls-4" x1="613.5" y1="319.3" x2="657.3" y2="319.3"/>
      <line class="cls-4" x1="613.5" y1="326.3" x2="657.3" y2="326.3"/>
      <line class="cls-4" x1="613.5" y1="333.4" x2="657.3" y2="333.4"/>
      <line class="cls-4" x1="613.5" y1="340.4" x2="657.3" y2="340.4"/>
      <line class="cls-4" x1="613.5" y1="347.4" x2="657.3" y2="347.4"/>
      <line class="cls-4" x1="613.5" y1="354.5" x2="657.3" y2="354.5"/>
      <line class="cls-4" x1="613.5" y1="361.5" x2="657.3" y2="361.5"/>
      <line class="cls-4" x1="613.5" y1="368.5" x2="657.3" y2="368.5"/>
      <line class="cls-4" x1="613.5" y1="375.6" x2="657.3" y2="375.6"/>
      <line class="cls-4" x1="613.5" y1="382.6" x2="657.3" y2="382.6"/>
      <line class="cls-4" x1="613.5" y1="389.6" x2="657.3" y2="389.6"/>
      <line class="cls-4" x1="613.5" y1="396.7" x2="657.3" y2="396.7"/>
      <line class="cls-4" x1="613.5" y1="403.7" x2="657.3" y2="403.7"/>
      <line class="cls-4" x1="613.5" y1="410.8" x2="657.3" y2="410.8"/>
      <line class="cls-4" x1="613.5" y1="417.8" x2="657.3" y2="417.8"/>
      <line class="cls-4" x1="613.5" y1="424.8" x2="657.3" y2="424.8"/>
      <line class="cls-4" x1="613.5" y1="431.9" x2="657.3" y2="431.9"/>
      <line class="cls-4" x1="613.5" y1="438.9" x2="657.3" y2="438.9"/>
      <line class="cls-4" x1="613.5" y1="445.9" x2="657.3" y2="445.9"/>
      <line class="cls-4" x1="613.5" y1="453" x2="657.3" y2="453"/>
      <line class="cls-4" x1="613.5" y1="460" x2="657.3" y2="460"/>
      <line class="cls-4" x1="613.5" y1="467" x2="657.3" y2="467"/>
      <line class="cls-4" x1="613.5" y1="474.1" x2="657.3" y2="474.1"/>
      <line class="cls-4" x1="613.5" y1="481.1" x2="657.3" y2="481.1"/>
      <line class="cls-4" x1="613.5" y1="488.2" x2="657.3" y2="488.2"/>
      <line class="cls-4" x1="613.5" y1="495.2" x2="657.3" y2="495.2"/>
      <line class="cls-4" x1="613.5" y1="502.2" x2="657.3" y2="502.2"/>
      <line class="cls-4" x1="613.5" y1="509.3" x2="657.3" y2="509.3"/>
      <line class="cls-4" x1="613.5" y1="516.3" x2="657.3" y2="516.3"/>
      <line class="cls-4" x1="613.5" y1="523.3" x2="657.3" y2="523.3"/>
      <line class="cls-4" x1="613.5" y1="530.4" x2="657.3" y2="530.4"/>
      <line class="cls-4" x1="613.5" y1="537.4" x2="657.3" y2="537.4"/>
      <line class="cls-4" x1="613.5" y1="544.5" x2="657.3" y2="544.5"/>
      <line class="cls-4" x1="613.5" y1="551.5" x2="657.3" y2="551.5"/>
      <line class="cls-4" x1="613.5" y1="558.5" x2="657.3" y2="558.5"/>
      <line class="cls-4" x1="613.5" y1="565.6" x2="657.3" y2="565.6"/>
      <line class="cls-4" x1="613.5" y1="572.6" x2="657.3" y2="572.6"/>
      <line class="cls-4" x1="613.5" y1="579.6" x2="657.3" y2="579.6"/>
      <line class="cls-4" x1="613.5" y1="586.7" x2="657.3" y2="586.7"/>
      <line class="cls-4" x1="613.5" y1="593.7" x2="657.3" y2="593.7"/>
      <line class="cls-4" x1="613.5" y1="600.7" x2="657.3" y2="600.7"/>
      <line class="cls-4" x1="613.5" y1="607.8" x2="657.3" y2="607.8"/>
      <line class="cls-4" x1="613.5" y1="614.8" x2="657.3" y2="614.8"/>
      <line class="cls-4" x1="613.5" y1="621.8" x2="657.3" y2="621.8"/>
      <line class="cls-4" x1="613.5" y1="628.9" x2="657.3" y2="628.9"/>
      <line class="cls-4" x1="613.5" y1="635.9" x2="657.3" y2="635.9"/>
      <line class="cls-4" x1="613.5" y1="643" x2="657.3" y2="643"/>
      <line class="cls-4" x1="613.5" y1="650" x2="657.3" y2="650"/>
      <line class="cls-4" x1="613.5" y1="657" x2="657.3" y2="657"/>
      <line class="cls-4" x1="613.5" y1="664.1" x2="657.3" y2="664.1"/>
      <line class="cls-4" x1="613.5" y1="671.1" x2="657.3" y2="671.1"/>
      <line class="cls-4" x1="613.5" y1="678.2" x2="657.3" y2="678.2"/>
      <line class="cls-4" x1="613.5" y1="685.2" x2="657.3" y2="685.2"/>
      <line class="cls-4" x1="613.5" y1="692.2" x2="657.3" y2="692.2"/>
      <line class="cls-4" x1="613.5" y1="699.3" x2="657.3" y2="699.3"/>
      <line class="cls-4" x1="613.5" y1="706.3" x2="657.3" y2="706.3"/>
    </g>
    <g>
      <g>
        <line class="cls-4" x1="663.8" y1="0" x2="663.8" y2="712.9"/>
        <line class="cls-4" x1="702" y1="0" x2="702" y2="712.9"/>
      </g>
      <line class="cls-4" x1="661.2" y1="2.6" x2="705" y2="2.6"/>
      <line class="cls-4" x1="661.2" y1="9.7" x2="705" y2="9.7"/>
      <line class="cls-4" x1="661.2" y1="16.7" x2="705" y2="16.7"/>
      <line class="cls-4" x1="661.2" y1="23.7" x2="705" y2="23.7"/>
      <line class="cls-4" x1="661.2" y1="30.8" x2="705" y2="30.8"/>
      <line class="cls-4" x1="661.2" y1="37.8" x2="705" y2="37.8"/>
      <line class="cls-4" x1="661.2" y1="44.8" x2="705" y2="44.8"/>
      <line class="cls-4" x1="661.2" y1="51.9" x2="705" y2="51.9"/>
      <line class="cls-4" x1="661.2" y1="58.9" x2="705" y2="58.9"/>
      <line class="cls-4" x1="661.2" y1="66" x2="705" y2="66"/>
      <line class="cls-4" x1="661.2" y1="73" x2="705" y2="73"/>
      <line class="cls-4" x1="661.2" y1="80" x2="705" y2="80"/>
      <line class="cls-4" x1="661.2" y1="87.1" x2="705" y2="87.1"/>
      <line class="cls-4" x1="661.2" y1="94.1" x2="705" y2="94.1"/>
      <line class="cls-4" x1="661.2" y1="101.1" x2="705" y2="101.1"/>
      <line class="cls-4" x1="661.2" y1="108.2" x2="705" y2="108.2"/>
      <line class="cls-4" x1="661.2" y1="115.2" x2="705" y2="115.2"/>
      <line class="cls-4" x1="661.2" y1="122.3" x2="705" y2="122.3"/>
      <line class="cls-4" x1="661.2" y1="129.3" x2="705" y2="129.3"/>
      <line class="cls-4" x1="661.2" y1="136.3" x2="705" y2="136.3"/>
      <line class="cls-4" x1="661.2" y1="143.4" x2="705" y2="143.4"/>
      <line class="cls-4" x1="661.2" y1="150.4" x2="705" y2="150.4"/>
      <line class="cls-4" x1="661.2" y1="157.4" x2="705" y2="157.4"/>
      <line class="cls-4" x1="661.2" y1="164.5" x2="705" y2="164.5"/>
      <line class="cls-4" x1="661.2" y1="171.5" x2="705" y2="171.5"/>
      <line class="cls-4" x1="661.2" y1="178.6" x2="705" y2="178.6"/>
      <line class="cls-4" x1="661.2" y1="185.6" x2="705" y2="185.6"/>
      <line class="cls-4" x1="661.2" y1="192.6" x2="705" y2="192.6"/>
      <line class="cls-4" x1="661.2" y1="199.7" x2="705" y2="199.7"/>
      <line class="cls-4" x1="661.2" y1="206.7" x2="705" y2="206.7"/>
      <line class="cls-4" x1="661.2" y1="213.7" x2="705" y2="213.7"/>
      <line class="cls-4" x1="661.2" y1="220.8" x2="705" y2="220.8"/>
      <line class="cls-4" x1="661.2" y1="227.8" x2="705" y2="227.8"/>
      <line class="cls-4" x1="661.2" y1="234.8" x2="705" y2="234.8"/>
      <line class="cls-4" x1="661.2" y1="241.9" x2="705" y2="241.9"/>
      <line class="cls-4" x1="661.2" y1="248.9" x2="705" y2="248.9"/>
      <line class="cls-4" x1="661.2" y1="255.9" x2="705" y2="255.9"/>
      <line class="cls-4" x1="661.2" y1="263" x2="705" y2="263"/>
      <line class="cls-4" x1="661.2" y1="270" x2="705" y2="270"/>
      <line class="cls-4" x1="661.2" y1="277.1" x2="705" y2="277.1"/>
      <line class="cls-4" x1="661.2" y1="284.1" x2="705" y2="284.1"/>
      <line class="cls-4" x1="661.2" y1="291.1" x2="705" y2="291.1"/>
      <line class="cls-4" x1="661.2" y1="298.2" x2="705" y2="298.2"/>
      <line class="cls-4" x1="661.2" y1="305.2" x2="705" y2="305.2"/>
      <line class="cls-4" x1="661.2" y1="312.2" x2="705" y2="312.2"/>
      <line class="cls-4" x1="661.2" y1="319.3" x2="705" y2="319.3"/>
      <line class="cls-4" x1="661.2" y1="326.3" x2="705" y2="326.3"/>
      <line class="cls-4" x1="661.2" y1="333.4" x2="705" y2="333.4"/>
      <line class="cls-4" x1="661.2" y1="340.4" x2="705" y2="340.4"/>
      <line class="cls-4" x1="661.2" y1="347.4" x2="705" y2="347.4"/>
      <line class="cls-4" x1="661.2" y1="354.5" x2="705" y2="354.5"/>
      <line class="cls-4" x1="661.2" y1="361.5" x2="705" y2="361.5"/>
      <line class="cls-4" x1="661.2" y1="368.5" x2="705" y2="368.5"/>
      <line class="cls-4" x1="661.2" y1="375.6" x2="705" y2="375.6"/>
      <line class="cls-4" x1="661.2" y1="382.6" x2="705" y2="382.6"/>
      <line class="cls-4" x1="661.2" y1="389.6" x2="705" y2="389.6"/>
      <line class="cls-4" x1="661.2" y1="396.7" x2="705" y2="396.7"/>
      <line class="cls-4" x1="661.2" y1="403.7" x2="705" y2="403.7"/>
      <line class="cls-4" x1="661.2" y1="410.8" x2="705" y2="410.8"/>
      <line class="cls-4" x1="661.2" y1="417.8" x2="705" y2="417.8"/>
      <line class="cls-4" x1="661.2" y1="424.8" x2="705" y2="424.8"/>
      <line class="cls-4" x1="661.2" y1="431.9" x2="705" y2="431.9"/>
      <line class="cls-4" x1="661.2" y1="438.9" x2="705" y2="438.9"/>
      <line class="cls-4" x1="661.2" y1="445.9" x2="705" y2="445.9"/>
      <line class="cls-4" x1="661.2" y1="453" x2="705" y2="453"/>
      <line class="cls-4" x1="661.2" y1="460" x2="705" y2="460"/>
      <line class="cls-4" x1="661.2" y1="467" x2="705" y2="467"/>
      <line class="cls-4" x1="661.2" y1="474.1" x2="705" y2="474.1"/>
      <line class="cls-4" x1="661.2" y1="481.1" x2="705" y2="481.1"/>
      <line class="cls-4" x1="661.2" y1="488.2" x2="705" y2="488.2"/>
      <line class="cls-4" x1="661.2" y1="495.2" x2="705" y2="495.2"/>
      <line class="cls-4" x1="661.2" y1="502.2" x2="705" y2="502.2"/>
      <line class="cls-4" x1="661.2" y1="509.3" x2="705" y2="509.3"/>
      <line class="cls-4" x1="661.2" y1="516.3" x2="705" y2="516.3"/>
      <line class="cls-4" x1="661.2" y1="523.3" x2="705" y2="523.3"/>
      <line class="cls-4" x1="661.2" y1="530.4" x2="705" y2="530.4"/>
      <line class="cls-4" x1="661.2" y1="537.4" x2="705" y2="537.4"/>
      <line class="cls-4" x1="661.2" y1="544.5" x2="705" y2="544.5"/>
      <line class="cls-4" x1="661.2" y1="551.5" x2="705" y2="551.5"/>
      <line class="cls-4" x1="661.2" y1="558.5" x2="705" y2="558.5"/>
      <line class="cls-4" x1="661.2" y1="565.6" x2="705" y2="565.6"/>
      <line class="cls-4" x1="661.2" y1="572.6" x2="705" y2="572.6"/>
      <line class="cls-4" x1="661.2" y1="579.6" x2="705" y2="579.6"/>
      <line class="cls-4" x1="661.2" y1="586.7" x2="705" y2="586.7"/>
      <line class="cls-4" x1="661.2" y1="593.7" x2="705" y2="593.7"/>
      <line class="cls-4" x1="661.2" y1="600.7" x2="705" y2="600.7"/>
      <line class="cls-4" x1="661.2" y1="607.8" x2="705" y2="607.8"/>
      <line class="cls-4" x1="661.2" y1="614.8" x2="705" y2="614.8"/>
      <line class="cls-4" x1="661.2" y1="621.8" x2="705" y2="621.8"/>
      <line class="cls-4" x1="661.2" y1="628.9" x2="705" y2="628.9"/>
      <line class="cls-4" x1="661.2" y1="635.9" x2="705" y2="635.9"/>
      <line class="cls-4" x1="661.2" y1="643" x2="705" y2="643"/>
      <line class="cls-4" x1="661.2" y1="650" x2="705" y2="650"/>
      <line class="cls-4" x1="661.2" y1="657" x2="705" y2="657"/>
      <line class="cls-4" x1="661.2" y1="664.1" x2="705" y2="664.1"/>
      <line class="cls-4" x1="661.2" y1="671.1" x2="705" y2="671.1"/>
      <line class="cls-4" x1="661.2" y1="678.2" x2="705" y2="678.2"/>
      <line class="cls-4" x1="661.2" y1="685.2" x2="705" y2="685.2"/>
      <line class="cls-4" x1="661.2" y1="692.2" x2="705" y2="692.2"/>
      <line class="cls-4" x1="661.2" y1="699.3" x2="705" y2="699.3"/>
      <line class="cls-4" x1="661.2" y1="706.3" x2="705" y2="706.3"/>
    </g>
    <rect class="cls-17" x="391.1" y="0" width="9.1" height="712.9"/>
    <rect class="cls-12" x="516.2" y="0" width="9.2" height="712.9"/>
    <rect class="cls-9" x="592" y="0" width="9.2" height="712.9"/>
    <rect class="cls-6" x="717.8" y="0" width="9.2" height="712.9"/>
    <rect class="cls-11" x="852.3" y="134.3" width="70.5" height="41"/>
    <polygon class="cls-14" points="1025 -.7 1025 97.1 284.9 97.8 284.9 0 246.1 0 246.1 396.8 259.9 396.8 284.9 396.8 793.6 396.8 793.6 347.8 284.9 347.8 284.9 155 1025 154.2 1025 597.1 291.3 597.8 291.3 639.4 988.2 639.4 1169.8 639.4 1169.8 597.8 1169.8 0 1025 -.7"/>
    <rect class="cls-11" x="154.3" y="10.4" width="36.9" height="87.3"/>
    <rect class="cls-11" x="154.3" y="379.2" width="36.9" height="132.1"/>
    <rect class="cls-11" x="154.3" y="536.2" width="36.9" height="64.5"/>
    <rect class="cls-11" x="539.3" y="328.6" width="38.4" height="19.2"/>
    <rect class="cls-11" x="846.5" y="395.6" width="65.9" height="36.5"/>
    <rect class="cls-16" x="334" y="65.2" width="32.5" height="32.5"/>
    <rect class="cls-13" x="213.6" y="110.2" width="32.5" height="32.5"/>
    <rect class="cls-13" x="334" y="154.9" width="32.5" height="32.5"/>
    <rect class="cls-16" x="542.4" y="65" width="32.5" height="32.5"/>
    <rect class="cls-16" x="542.4" y="154.7" width="32.5" height="32.5"/>
    <rect class="cls-16" x="744.7" y="64.9" width="32.5" height="32.5"/>
    <rect class="cls-13" x="744.7" y="154.5" width="32.5" height="32.5"/>
    <rect class="cls-13" x="334" y="565.2" width="32.5" height="32.5"/>
    <rect class="cls-16" x="334" y="639.4" width="32.5" height="32.5"/>
    <rect class="cls-16" x="542.4" y="565" width="32.5" height="32.5"/>
    <rect class="cls-16" x="542.4" y="639.4" width="32.5" height="32.5"/>
    <rect class="cls-16" x="334" y="315.3" width="32.5" height="32.5"/>
    <rect class="cls-16" x="334" y="396.8" width="32.5" height="32.5"/>
    <rect class="cls-16" x="542.4" y="396.8" width="32.5" height="32.5"/>
    <rect class="cls-16" x="744.7" y="315.3" width="32.5" height="32.5"/>
    <rect class="cls-16" x="744.7" y="396.8" width="32.5" height="32.5"/>
    <g>
      <rect class="cls-5" x="825.7" y="470.9" width="39.3" height="13.6"/>
      <rect class="cls-8" x="853.2" y="471.7" width="4.6" height="12"/>
      <rect class="cls-5" x="825.7" y="488" width="39.3" height="13.6"/>
      <rect class="cls-8" x="853.2" y="488.8" width="4.6" height="12"/>
      <rect class="cls-5" x="825.7" y="505.1" width="39.3" height="13.6"/>
      <rect class="cls-8" x="853.2" y="506" width="4.6" height="12"/>
    </g>
    <path class="cls-1" d="M1169.8,579.7h-73.7c-17.2,0-31.1-13.9-31.1-31.1V61.9c0-17.2,13.9-31.1,31.1-31.1h73.7"/>
    <rect class="cls-15" y="0" width="110" height="712.9"/>
    <line class="cls-3" x1="55" y1="0" x2="55" y2="712.9"/>
  </g>
  <g>
    <path class="cls-2" d="M1125.12,429.1c.23-.73.55-1.4.98-2,.42-.6.96-1.12,1.62-1.54.66-.42,1.44-.75,2.33-.98.9-.23,1.92-.34,3.08-.34h1.76c5.66,0,8.5,2.83,8.5,8.5v19.17h-35.01v-18.17c0-5.67,2.84-8.5,8.52-8.5h.64c1.97,0,3.58.31,4.82.94,1.25.63,2.17,1.6,2.77,2.92ZM1113.28,446.99h9.96v-13.45c-.05-1.21-.38-2.07-.99-2.6s-1.55-.79-2.82-.79h-2.3c-1.33,0-2.31.29-2.93.88s-.93,1.54-.93,2.86v13.11ZM1128.12,446.99h10.35v-14.11c0-1.32-.31-2.27-.93-2.86-.62-.59-1.59-.88-2.91-.88h-2.71c-1.33,0-2.3.29-2.91.88-.6.59-.9,1.54-.9,2.86v14.11Z"/>
    <path class="cls-2" d="M1108.37,416.74v-5h30.01v-20h-30.01v-5.01h30.01c.68,0,1.33.13,1.94.39.61.26,1.14.62,1.6,1.07.46.46.81.99,1.07,1.6.26.61.39,1.26.39,1.94v20c0,.68-.13,1.33-.39,1.94-.26.61-.62,1.14-1.07,1.6-.46.46-.99.81-1.6,1.07-.61.26-1.26.39-1.94.39h-30.01Z"/>
    <path class="cls-2" d="M1128.39,372.74c0,.68-.13,1.33-.4,1.94-.27.61-.63,1.14-1.07,1.6-.45.46-.98.81-1.59,1.07-.61.26-1.26.39-1.94.39h-10.01c-.68,0-1.33-.13-1.94-.39-.61-.26-1.14-.62-1.59-1.07-.45-.46-.81-.99-1.07-1.6-.27-.61-.4-1.26-.4-1.94v-17c0-.68.13-1.33.4-1.94.27-.61.63-1.14,1.07-1.6.45-.46.98-.81,1.59-1.07.61-.26,1.26-.39,1.94-.39h4.52v5.01h-4.52v17h10.01v-17c0-.68.13-1.33.39-1.94.26-.61.62-1.14,1.07-1.6s.99-.81,1.6-1.07c.61-.26,1.26-.39,1.94-.39h9.99c.68,0,1.33.13,1.94.39.61.26,1.14.62,1.6,1.07s.81.99,1.07,1.6c.26.61.39,1.26.39,1.94v17.48c0,.68-.13,1.33-.39,1.94-.26.61-.62,1.14-1.07,1.6-.46.46-.99.81-1.6,1.07-.61.26-1.26.39-1.94.39h-4.49v-5h4.49v-17.48h-9.99v17Z"/>
    <path class="cls-2" d="M1128.39,321.73c0,.68-.13,1.33-.4,1.94-.27.61-.63,1.14-1.07,1.6-.45.46-.98.81-1.59,1.07-.61.26-1.26.39-1.94.39h-10.01c-.68,0-1.33-.13-1.94-.39-.61-.26-1.14-.62-1.59-1.07-.45-.46-.81-.99-1.07-1.6-.27-.61-.4-1.26-.4-1.94v-17c0-.68.13-1.33.4-1.94.27-.61.63-1.14,1.07-1.6.45-.46.98-.81,1.59-1.07.61-.26,1.26-.39,1.94-.39h4.52v5.01h-4.52v17h10.01v-17c0-.68.13-1.33.39-1.94.26-.61.62-1.14,1.07-1.6s.99-.81,1.6-1.07c.61-.26,1.26-.39,1.94-.39h9.99c.68,0,1.33.13,1.94.39.61.26,1.14.62,1.6,1.07s.81.99,1.07,1.6c.26.61.39,1.26.39,1.94v17.48c0,.68-.13,1.33-.39,1.94-.26.61-.62,1.14-1.07,1.6-.46.46-.99.81-1.6,1.07-.61.26-1.26.39-1.94.39h-4.49v-5h4.49v-17.48h-9.99v17Z"/>
    <path class="cls-2" d="M1108.37,293.73v-28.01h5.01v11.5h30.01v5.01h-30.01v11.5h-5.01Z"/>
    <path class="cls-2" d="M1108.37,248.21l35.01-13.5v5.01l-8.06,3.1v15.8l8.06,3.1v5.01l-35.01-13.5v-5.01ZM1130.32,256.71v-11.96l-15.43,5.96,15.43,6.01Z"/>
    <path class="cls-2" d="M1143.38,223.7v5h-35.01v-5l27.15-21.05h-27.15v-5.01h35.01v5.01l-27.15,21.05h27.15Z"/>
    <path class="cls-2" d="M1143.38,188.66h-35.01v-17.8c0-1.87.29-3.56.87-5.07.58-1.51,1.4-2.79,2.47-3.86,1.07-1.07,2.36-1.89,3.87-2.47s3.2-.87,5.05-.87h10.5c1.86,0,3.54.29,5.05.87s2.8,1.4,3.87,2.47c1.07,1.07,1.89,2.35,2.47,3.86.58,1.51.87,3.19.87,5.07v17.8ZM1138.38,170.86c0-2.33-.63-4.12-1.88-5.37-1.25-1.25-3.04-1.88-5.37-1.88h-10.5c-1.14,0-2.16.16-3.05.49s-1.66.8-2.28,1.43c-.63.63-1.1,1.39-1.43,2.28-.33.9-.49,1.91-.49,3.05v12.79h25v-12.79Z"/>
  </g>
</svg>